<svg fill="none" height="32" viewBox="0 0 32 32" width="32" xmlns="http://www.w3.org/2000/svg"><g fill="#fff"><path d="m16 18.8c-1.5 0-2.8-1.2-2.8-2.8 0-1.5 1.2-2.8 2.8-2.8 1.5 0 2.8 1.2 2.8 2.8 0 1.5-1.3 2.8-2.8 2.8z"/><g clip-rule="evenodd" fill-rule="evenodd"><path d="m19.4 9.2h-6.8c-.8.1-1.2.2-1.5.3-.4.1-.7.3-1 .6-.23739.2374-.34955.4748-.48511.7617-.03573.0756-.07319.1549-.11489.2383-.01547.0464-.03333.0952-.05248.1475-.10461.2858-.24752.6763-.24752 1.3525v6.8c.1.8.2 1.2.3 1.5.1.4.3.7.6 1 .2374.2374.4748.3495.7617.4851.0757.0358.1548.0732.2383.1149.0464.0155.0952.0333.1475.0525.2858.1046.6763.2475 1.3525.2475h6.8c.8-.1 1.2-.2 1.5-.3.4-.1.7-.3 1-.6.2374-.2374.3495-.4748.4851-.7617.0358-.0757.0732-.1548.1149-.2383.0155-.0464.0333-.0952.0525-.1475.1046-.2858.2475-.6763.2475-1.3525v-6.8c-.1-.8-.2-1.2-.3-1.5-.1-.4-.3-.7-.6-1-.2374-.23739-.4748-.34955-.7617-.48512-.0756-.0357-.155-.07321-.2383-.11488-.0464-.01547-.0952-.03334-.1475-.05248-.2858-.10462-.6763-.24752-1.3525-.24752zm-3.4 2.5c-2.4 0-4.3 1.9-4.3 4.3s1.9 4.3 4.3 4.3 4.3-1.9 4.3-4.3-1.9-4.3-4.3-4.3zm5.4-.1c0 .5523-.4477 1-1 1s-1-.4477-1-1 .4477-1 1-1 1 .4477 1 1z"/><path d="m0 0h32v32h-32zm12.6 7.7h6.8c.9.1 1.5.2 2 .4.6.3 1 .5 1.5 1s.8 1 1 1.5.4 1.1.4 2v6.8c-.1.9-.2 1.5-.4 2-.3.6-.5 1-1 1.5s-1 .8-1.5 1-1.1.4-2 .4h-6.8c-.9-.1-1.5-.2-2-.4-.6-.3-1-.5-1.5-1s-.8-1-1-1.5-.4-1.1-.4-2v-6.8c.1-.9.2-1.5.4-2 .3-.6.5-1 1-1.5s1-.8 1.5-1 1.1-.4 2-.4z"/></g></g></svg>